<svg xmlns="http://www.w3.org/2000/svg" viewBox="0 0 500 500"><g id="freepik--Floor--inject-24"><path d="M409,259.78c-88.41-51-231.28-51-319.12,0S2.55,393.58,91,444.62s231.28,51.05,319.12,0S497.45,310.82,409,259.78Z" style="fill:#f5f5f5"></path></g><g id="freepik--Shadows--inject-24"><path d="M115.6,430.28c6.86-4,17.94-4,24.76,0s6.78,10.38-.08,14.34-17.94,4-24.76,0S108.74,434.24,115.6,430.28Z" style="fill:#e0e0e0"></path><path d="M158.57,360,238,314.14l63.44,36.53a41.66,41.66,0,0,1,11.32-9.21c22.62-13.06,59.19-13.06,81.67,0s22.36,34.25-.26,47.31a68.39,68.39,0,0,1-15.48,6.39l6.37,3.67a2.89,2.89,0,0,1,0,5l-73.72,42.58a11.55,11.55,0,0,1-11.53,0L158.57,365A2.88,2.88,0,0,1,158.57,360Z" style="fill:#e0e0e0"></path><polygon points="297.12 233.88 51.57 376.87 40.12 370.26 285.67 227.27 297.12 233.88" style="fill:#e0e0e0"></polygon></g><g id="freepik--Plant--inject-24"><path d="M111.33,407.5l16.61.48,16.61-.48c.71,11.21-1.48,22.64-4.5,28.22h0a7.56,7.56,0,0,1-3.29,3.35c-4.9,2.82-12.81,2.82-17.68,0a7.35,7.35,0,0,1-3.29-3.44C112.79,430,110.62,418.66,111.33,407.5Z" style="fill:#fff"></path><path d="M116.24,400.7c-6.51,3.75-6.54,9.84-.08,13.6s17,3.76,23.48,0,6.54-9.85.08-13.6S122.74,396.94,116.24,400.7Z" style="fill:#ebebeb"></path><path d="M118.81,402.19c-5.08,2.93-5.1,7.68-.06,10.61s13.24,2.93,18.32,0,5.1-7.68.06-10.61S123.88,399.26,118.81,402.19Z" style="fill:#e0e0e0"></path><g style="opacity:0.15"><path d="M118.81,402.19c-5.08,2.93-5.1,7.68-.06,10.61s13.24,2.93,18.32,0,5.1-7.68.06-10.61S123.88,399.26,118.81,402.19Z"></path></g><path d="M100.64,336.64c37.42,12.25,37.76,37.29,29.32,55.11-2.13,3.61-8.56,5.55-14.17-16.62l9.83,1.26-11.45-5.81-3-8.89,9.55.71-12.12-5.1A180.19,180.19,0,0,0,100.64,336.64Z" style="fill:#92E3A9"></path><path d="M100.64,336.64c37.42,12.25,37.76,37.29,29.32,55.11-2.13,3.61-8.56,5.55-14.17-16.62l9.83,1.26-11.45-5.81-3-8.89,9.55.71-12.12-5.1A180.19,180.19,0,0,0,100.64,336.64Z" style="opacity:0.2"></path><path d="M111.22,342.9c19.74,15,21.52,32.15,15.94,50.07C129.13,377.19,131.27,361.23,111.22,342.9Z" style="fill:#fff"></path><path d="M164,362.07c-36.89,5.19-41.36,28.45-36.47,46.46,1.38,3.71,7.06,6.59,16-13.13l-9.36-.46,11.63-3.51,4.25-7.78-9-.93L153.16,380A168.79,168.79,0,0,1,164,362.07Z" style="fill:#92E3A9"></path><path d="M164,362.07c-36.89,5.19-41.36,28.45-36.47,46.46,1.38,3.71,7.06,6.59,16-13.13l-9.36-.46,11.63-3.51,4.25-7.78-9-.93L153.16,380A168.79,168.79,0,0,1,164,362.07Z" style="fill:#fff;opacity:0.2"></path><path d="M153.12,366.14c-20.86,10.67-25.38,26.37-23.16,44C130.74,395.1,131.41,379.88,153.12,366.14Z" style="fill:#fff"></path><path d="M89.84,370.78c33.83.56,40.47,21,38.07,37.8-.83,3.5-5.62,6.73-15.85-10.05l8.38-1.46-10.87-1.86-4.7-6.54,8-1.85-11.24-1.1A154.48,154.48,0,0,0,89.84,370.78Z" style="fill:#92E3A9"></path><path d="M100.12,373.23c20,7.29,25.82,20.93,25.8,37.06C123.53,396.83,121.23,383.19,100.12,373.23Z" style="fill:#fff"></path></g><g id="freepik--Pictures--inject-24"><polygon points="407.17 79.05 439.91 97.95 439.84 122.97 407.1 104.07 407.17 79.05" style="fill:none"></polygon><polygon points="407.17 79.05 407.1 104.07 404.07 105.83 404.15 77.31 407.17 79.05" style="fill:#f0f0f0"></polygon><polygon points="439.84 122.97 439.83 126.48 404.07 105.83 407.1 104.07 439.84 122.97" style="fill:#f5f5f5"></polygon><path d="M400.39,107.93l43.09,24.88.1-36.95L400.5,71Zm3.68-2.1.08-28.52,3,1.74L439.91,98l-.07,25v3.51Z" style="fill:#e0e0e0"></path><polygon points="400.5 70.99 403.53 69.22 446.62 94.1 443.58 95.86 400.5 70.99" style="fill:#f5f5f5"></polygon><polygon points="446.62 94.1 446.51 131.04 443.48 132.81 443.58 95.86 446.62 94.1" style="fill:#f0f0f0"></polygon><polygon points="407.19 135.2 439.93 154.1 439.86 179.12 407.12 160.22 407.19 135.2" style="fill:none"></polygon><polygon points="407.19 135.2 407.12 160.22 404.09 161.99 404.17 133.46 407.19 135.2" style="fill:#f0f0f0"></polygon><polygon points="439.86 179.12 439.85 182.63 404.09 161.99 407.12 160.22 439.86 179.12" style="fill:#f5f5f5"></polygon><path d="M400.41,164.08,443.5,189l.11-36.94-43.09-24.88Zm3.68-2.09.08-28.53,3,1.74,32.74,18.9-.07,25v3.51Z" style="fill:#e0e0e0"></path><polygon points="400.52 127.14 403.55 125.38 446.64 150.25 443.61 152.02 400.52 127.14" style="fill:#f5f5f5"></polygon><polygon points="446.64 150.25 446.53 187.19 443.5 188.96 443.61 152.02 446.64 150.25" style="fill:#f0f0f0"></polygon><path d="M356.59,94.48h0l-1.18-.57h0Z" style="fill:none"></path><path d="M357,94.69h0l-.43-.21h0Z" style="fill:none"></path><polygon points="343.24 45.73 352.19 50.9 361.29 56.15 352.19 50.9 343.24 45.73" style="fill:none"></polygon><polygon points="343.15 75.24 343.18 66.94 343.2 59.35 343.18 66.94 343.15 75.24" style="fill:none"></polygon><path d="M355.41,93.91l-.24-.12.24.12Z" style="fill:none"></path><polygon points="343.05 111.65 343.07 104.71 343.09 98.63 343.07 104.71 343.05 111.65" style="fill:none"></polygon><path d="M360.49,96.12c-1.15-.41-2.31-.89-3.47-1.43h0C358.18,95.23,359.34,95.71,360.49,96.12Z" style="fill:none"></path><polygon points="369.82 71.36 369.75 98.04 369.7 113.5 369.75 98.04 369.82 71.36" style="fill:none"></polygon><path d="M343.07,104.71l0-6.08.27.16.51.3c4.49,2.71,9,7,13.19,11.57.69.76,1.38,1.54,2.06,2.31,3.53,4,7,8.34,10.55,12.35l0,9.82-4.28-2.47A94.1,94.1,0,0,0,343.07,104.71Z" style="fill:#ebebeb"></path><path d="M343,119.77l0-8.12A51.42,51.42,0,0,1,352.16,125Z" style="fill:#ebebeb"></path><path d="M352.16,125a51.42,51.42,0,0,0-9.11-13.39l0-6.94a94.1,94.1,0,0,1,22.29,28L352.16,125Z" style="fill:#fafafa"></path><path d="M357,94.69h0" style="fill:none;stroke:gray;stroke-linecap:round;stroke-linejoin:round;stroke-width:0px"></path><path d="M356.59,94.48h0" style="fill:none;stroke:gray;stroke-linecap:round;stroke-linejoin:round;stroke-width:0px"></path><path d="M361.11,96.34l-.62-.22c-1.15-.41-2.31-.89-3.47-1.43l-.43-.21-1.18-.57c-.68-.35-1.35-.71-2-1.09.68.38,1.35.74,2,1.09l-.24-.12c-.6-.31-1.2-.63-1.79-1L353,92.6l-.31-.18a65.45,65.45,0,0,1-9.16-6.57l-.4-.34,0-10.27c6.52,3.34,12.93,4.37,18.1,2.76a15.87,15.87,0,0,0,8.57-6.64L369.75,98A31.6,31.6,0,0,1,361.11,96.34Z" style="fill:#fafafa"></path><path d="M357.06,110.66c-4.2-4.6-8.7-8.86-13.19-11.57l-.51-.3-.27-.16V92.75a127.27,127.27,0,0,1,24,18.27c.87.83,1.73,1.67,2.6,2.48l0,11.82c-3.56-4-7-8.3-10.55-12.35C358.44,112.2,357.75,111.42,357.06,110.66Z" style="fill:#fafafa"></path><path d="M343.1,92.75l0-7.24.4.34a65.45,65.45,0,0,0,9.16,6.57l.31.18.39.22c.59.34,1.19.66,1.79,1l.24.12.17.08h0l-.17-.08,1.18.57.43.21c1.16.54,2.32,1,3.47,1.43l-.65-.24.65.24.62.22a31.6,31.6,0,0,0,8.64,1.7l-.05,15.46c-.87-.81-1.73-1.65-2.6-2.48A127.27,127.27,0,0,0,343.1,92.75Z" style="fill:#ebebeb"></path><path d="M343.18,66.94l0-7.59c4.11-1,7.31-4,9-8.45l9.1,5.25A18.8,18.8,0,0,1,343.18,66.94Z" style="fill:#fafafa"></path><path d="M361.25,78c-5.17,1.61-11.58.58-18.1-2.76l0-8.3a18.8,18.8,0,0,0,18.11-10.79l8.56,5,0,10.26A15.87,15.87,0,0,1,361.25,78Z" style="fill:#ebebeb"></path><path d="M341.52,120.63l29.62,17.1.22-77.48-29.62-17.1Zm23.84,12L352.16,125h0L343,119.77l0-8.12,0-6.94,0-6.08V92.75l0-7.24,0-10.27,0-8.3,0-7.59,0-13.62,8.95,5.17,9.1,5.25,8.56,5,0,10.26L369.75,98l-.05,15.46,0,11.82,0,9.82Z" style="fill:#fff"></path><path d="M355.6,94h0" style="fill:none;stroke:gray;stroke-linecap:round;stroke-linejoin:round;stroke-width:0px"></path><path d="M355.58,94l-.17-.08" style="fill:none;stroke:gray;stroke-linecap:round;stroke-linejoin:round;stroke-width:0px"></path><path d="M353.38,92.82c.68.38,1.35.74,2,1.09" style="fill:none;stroke:gray;stroke-linecap:round;stroke-linejoin:round;stroke-width:0px"></path><line x1="355.41" y1="93.91" x2="355.41" y2="93.91" style="fill:none;stroke:gray;stroke-linecap:round;stroke-linejoin:round;stroke-width:0px"></line><path d="M360.49,96.12l-.65-.24" style="fill:none;stroke:gray;stroke-linecap:round;stroke-linejoin:round;stroke-width:0px"></path><path d="M343.2,59.35l0-13.62,8.95,5.17C350.51,55.39,347.31,58.38,343.2,59.35Z" style="fill:#ebebeb"></path><polygon points="341.52 120.63 371.14 137.73 371.13 139.78 339.74 121.66 341.52 120.63" style="fill:#cacaca"></polygon><polygon points="341.74 43.15 341.52 120.63 339.74 121.66 339.97 42.13 341.74 43.15" style="fill:#f0f0f0"></polygon><path d="M335,124.39,375.9,148l.25-90.51L335.21,33.88Zm4.79-2.73L340,42.13l1.77,1,29.62,17.1-.22,77.48v2.06Z" style="fill:#e0e0e0"></path><polygon points="335.21 33.88 338.58 32.06 379.53 55.7 376.15 57.52 335.21 33.88" style="fill:#f5f5f5"></polygon><polygon points="379.53 55.7 379.27 146.22 375.9 148.03 376.15 57.52 379.53 55.7" style="fill:#f0f0f0"></polygon><polygon points="417.57 88.55 408.64 95.58 408.63 102.45 438.32 119.59 438.34 112.72 432.68 101.49 427.6 105.43 429.39 111.01 426.79 106.06 417.57 88.55" style="fill:#e0e0e0"></polygon><path d="M427.33,92c-1.4-.8-2.54-.16-2.54,1.45a5.54,5.54,0,0,0,2.52,4.37c1.4.81,2.53.16,2.54-1.45A5.61,5.61,0,0,0,427.33,92Z" style="fill:#e0e0e0"></path><polygon points="417.59 144.7 408.67 151.73 408.65 158.6 438.34 175.74 438.36 168.88 432.7 157.64 427.62 161.58 429.42 167.16 426.81 162.21 417.59 144.7" style="fill:#e0e0e0"></polygon><path d="M427.35,148.16c-1.4-.8-2.54-.15-2.54,1.45a5.54,5.54,0,0,0,2.52,4.37c1.4.81,2.54.16,2.54-1.45A5.58,5.58,0,0,0,427.35,148.16Z" style="fill:#e0e0e0"></path></g><g id="freepik--Screen--inject-24"><polygon points="47.35 185.61 47.31 172.35 40.4 168.41 40.43 181.37 40.43 181.37 40.43 181.66 47.35 185.61 47.35 185.61" style="fill:#92E3A9"></polygon><path d="M47.79,339.19l-.44-153.58-6.92-4L40.87,335A2.87,2.87,0,0,0,42,337.54h0l0,0,0,0,6.82,4.17A2.91,2.91,0,0,1,47.79,339.19Z" style="fill:#92E3A9"></path><path d="M47.79,339.19l-.44-153.58-6.92-4L40.87,335A2.87,2.87,0,0,0,42,337.54h0l0,0,0,0,6.82,4.17A2.91,2.91,0,0,1,47.79,339.19Z" style="fill:#fff;opacity:0.2"></path><path d="M51.89,341.53a4.29,4.29,0,0,1-.79.37A4.62,4.62,0,0,0,51.89,341.53Z" style="fill:#455a64"></path><path d="M50.54,342l-.17,0Z" style="fill:#455a64"></path><path d="M49.12,341.88h0l0,0Z" style="fill:#455a64"></path><path d="M47.34,172.33l0-7.64a9,9,0,0,1,4.08-7.08L282.82,24a2.89,2.89,0,0,1,2.86-.3l-6.83-4.2h0a2.84,2.84,0,0,0-3,.25L44.48,153.36a9,9,0,0,0-4.08,7.08l0,7.64h0l0,0v.3l6.91,3.94Z" style="fill:#92E3A9"></path><path d="M47.34,172.33l0-7.64a9,9,0,0,1,4.08-7.08L282.82,24a2.89,2.89,0,0,1,2.86-.3l-6.83-4.2h0a2.84,2.84,0,0,0-3,.25L44.48,153.36a9,9,0,0,0-4.08,7.08l0,7.64h0l0,0v.3l6.91,3.94Z" style="fill:#fff;opacity:0.30000000000000004"></path><polygon points="47.35 185.61 47.31 172.35 40.4 168.41 40.43 181.37 40.43 181.37 40.43 181.66 47.35 185.61 47.35 185.61" style="opacity:0.2"></polygon><polygon points="47.35 185.61 47.31 172.35 40.4 168.41 40.43 181.37 40.43 181.37 40.43 181.66 47.35 185.61 47.35 185.61" style="fill:#fff;opacity:0.2"></polygon><path d="M282.82,24c2.25-1.3,4.1-.25,4.1,2.35L287,34,47.34,172.33l0-7.64a9,9,0,0,1,4.08-7.08Z" style="fill:#92E3A9"></path><path d="M267.3,36.64c1.21-.7,2.2-.14,2.2,1.25a4.79,4.79,0,0,1-2.18,3.78c-1.21.7-2.2.14-2.2-1.25A4.79,4.79,0,0,1,267.3,36.64Z" style="fill:#fff"></path><path d="M274,32.78c1.21-.7,2.19-.14,2.2,1.25A4.83,4.83,0,0,1,274,37.81c-1.21.7-2.19.14-2.2-1.25A4.83,4.83,0,0,1,274,32.78Z" style="fill:#fff"></path><path d="M280.67,28.92c1.21-.7,2.19-.14,2.19,1.25A4.81,4.81,0,0,1,280.68,34c-1.21.7-2.19.14-2.2-1.26A4.83,4.83,0,0,1,280.67,28.92Z" style="fill:#fff"></path><path d="M95.53,136.93c.9-.52,1.73-.43,2.16.24l2.18,3.34c.43.67,1.26.77,2.16.25L286.92,34l0,13.28L47.35,185.63l0-13.28,7.1-4.1a5.41,5.41,0,0,0,2.17-2.74l2.14-5.84a5.36,5.36,0,0,1,2.16-2.73Z" style="fill:#e0e0e0"></path><path d="M287,47.27l.43,153.58a9,9,0,0,1-4.08,7.07L51.89,341.53c-2.26,1.31-4.1.25-4.1-2.34l-.44-153.58Z" style="fill:#92E3A9"></path><g style="opacity:0.4"><path d="M287,47.27l.43,153.58a9,9,0,0,1-4.08,7.07L51.89,341.53c-2.26,1.31-4.1.25-4.1-2.34l-.44-153.58Z" style="fill:#fff"></path></g><path d="M277.48,42.17c1.61-.93,2.91-.19,2.92,1.66a6.41,6.41,0,0,1-2.9,5L74.68,166c-1.61.93-2.92.18-2.93-1.67a6.42,6.42,0,0,1,2.91-5Z" style="fill:#fff"></path><path d="M51.18,173.53a.28.28,0,0,1,.3,0c.16.1.14.41,0,.68l-1.28,2.09,3.36-1.94c.23-.13.41,0,.41.23a.87.87,0,0,1-.41.71l-3.35,1.94,1.28.61c.17.08.18.37,0,.65a.83.83,0,0,1-.31.33.32.32,0,0,1-.28,0l-2-1-.09-.08v0l0-.17,0-.21v0l.08-.17,2-3.36A.87.87,0,0,1,51.18,173.53Z" style="fill:#e0e0e0"></path><path d="M58.45,169.34a.29.29,0,0,1,.28,0l2.06,1,.08.09h0l0,.17,0,.2,0,.05-.07.16-2.06,3.37a.75.75,0,0,1-.28.28.28.28,0,0,1-.29,0c-.16-.1-.15-.4,0-.68l1.27-2.08-3.36,1.94c-.22.12-.4,0-.4-.24a.89.89,0,0,1,.4-.71l3.36-1.93-1.28-.61c-.17-.09-.18-.38,0-.66A.78.78,0,0,1,58.45,169.34Z" style="fill:#e0e0e0"></path><path d="M65.35,165.35a1.84,1.84,0,0,1,1.39-.26l.31-.4a.73.73,0,0,1,.22-.21.36.36,0,0,1,.22,0c.14,0,.21.17.18.37l-.17,1.26a.85.85,0,0,1-.18.43.69.69,0,0,1-.22.2l-.1,0L66,167a.23.23,0,0,1-.3-.21.79.79,0,0,1,.18-.57l.1-.13a1.37,1.37,0,0,0-.63.19,3.27,3.27,0,0,0-1.47,2.55c0,.94.67,1.31,1.48.84a3.24,3.24,0,0,0,1.3-1.62.86.86,0,0,1,.35-.45.31.31,0,0,1,.2-.05c.2,0,.27.25.16.55a5,5,0,0,1-2,2.52c-1.26.72-2.3.14-2.3-1.32A5.08,5.08,0,0,1,65.35,165.35Z" style="fill:#e0e0e0"></path><g style="opacity:0.30000000000000004"><path d="M51.18,173.53a.28.28,0,0,1,.3,0c.16.1.14.41,0,.68l-1.28,2.09,3.36-1.94c.23-.13.41,0,.41.23a.87.87,0,0,1-.41.71l-3.35,1.94,1.28.61c.17.08.18.37,0,.65a.83.83,0,0,1-.31.33.32.32,0,0,1-.28,0l-2-1-.09-.08v0l0-.17,0-.21v0l.08-.17,2-3.36A.87.87,0,0,1,51.18,173.53Z"></path></g><g style="opacity:0.30000000000000004"><path d="M58.45,169.34a.29.29,0,0,1,.28,0l2.06,1,.08.09h0l0,.17,0,.2,0,.05-.07.16-2.06,3.37a.75.75,0,0,1-.28.28.28.28,0,0,1-.29,0c-.16-.1-.15-.4,0-.68l1.27-2.08-3.36,1.94c-.22.12-.4,0-.4-.24a.89.89,0,0,1,.4-.71l3.36-1.93-1.28-.61c-.17-.09-.18-.38,0-.66A.78.78,0,0,1,58.45,169.34Z"></path></g><g style="opacity:0.30000000000000004"><path d="M65.35,165.35a1.84,1.84,0,0,1,1.39-.26l.31-.4a.73.73,0,0,1,.22-.21.36.36,0,0,1,.22,0c.14,0,.21.17.18.37l-.17,1.26a.85.85,0,0,1-.18.43.69.69,0,0,1-.22.2l-.1,0L66,167a.23.23,0,0,1-.3-.21.79.79,0,0,1,.18-.57l.1-.13a1.37,1.37,0,0,0-.63.19,3.27,3.27,0,0,0-1.47,2.55c0,.94.67,1.31,1.48.84a3.24,3.24,0,0,0,1.3-1.62.86.86,0,0,1,.35-.45.31.31,0,0,1,.2-.05c.2,0,.27.25.16.55a5,5,0,0,1-2,2.52c-1.26.72-2.3.14-2.3-1.32A5.08,5.08,0,0,1,65.35,165.35Z"></path></g><polygon points="191.84 171.5 192.06 249.82 116.42 293.49 116.2 215.16 191.84 171.5" style="fill:#92E3A9"></polygon><polygon points="277.33 64.97 277.45 109.11 175.2 168.14 175.07 124.01 277.33 64.97" style="fill:#92E3A9"></polygon><g style="opacity:0.5"><polygon points="191.84 171.5 192.06 249.82 116.42 293.49 116.2 215.16 191.84 171.5" style="fill:#fff"></polygon></g><g style="opacity:0.5"><polygon points="277.33 64.97 277.45 109.11 175.2 168.14 175.07 124.01 277.33 64.97" style="fill:#fff"></polygon></g><polygon points="108.82 219.42 109.05 297.75 61.08 325.44 60.86 247.12 108.82 219.42" style="fill:#92E3A9"></polygon><polygon points="276.69 122.5 276.92 200.83 199.44 245.56 199.22 167.24 276.69 122.5" style="fill:#92E3A9"></polygon><g style="opacity:0.30000000000000004"><polygon points="108.82 219.42 109.05 297.75 61.08 325.44 60.86 247.12 108.82 219.42" style="fill:#fff"></polygon></g><g style="opacity:0.30000000000000004"><polygon points="276.69 122.5 276.92 200.83 199.44 245.56 199.22 167.24 276.69 122.5" style="fill:#fff"></polygon></g><path d="M83.87,175.84C96.63,168.48,107,174.39,107,189s-10.26,32.5-23,39.86-23.12,1.45-23.16-13.2S71.12,183.2,83.87,175.84Z" style="fill:#92E3A9"></path><path d="M95.55,189.51a6.18,6.18,0,0,0,1.72-8.15,3.37,3.37,0,0,0,1.63-1.53,1.8,1.8,0,0,0-2.33-2.4,2.53,2.53,0,0,0-1-2.94,2.37,2.37,0,0,0-3,.54,1.61,1.61,0,0,0-1.1-1.58,3.22,3.22,0,0,0-2,.13c-.66.23-1.28.55-2,.76a14.6,14.6,0,0,1-3.5.45,7.05,7.05,0,0,0-3.38.9,3,3,0,0,0-1.32,3.43,2,2,0,0,0-1.41-.75,1.88,1.88,0,0,0-1.44.61c.74.46,1.45,1,2.19,1.41a2,2,0,0,0-2.25.89,4.45,4.45,0,0,0-.39,2.37,31.8,31.8,0,0,0,1.62,9.07,7.43,7.43,0,0,0,3.12,4.12Z" style="fill:#37474f"></path><path d="M93.15,201.09l3.49,3,1.85,10.59a57.83,57.83,0,0,0,4-7.11C100.9,203.52,99.63,201.09,93.15,201.09Z" style="fill:#ebebeb"></path><path d="M84,228.9c6-3.46,11.44-9.23,15.54-15.9-.34-5.73-1.19-11.91-6.41-11.91l-15.5.11-3.17.34L73,232.05A20.37,20.37,0,0,0,84,228.9Z" style="fill:#92E3A9"></path><g style="opacity:0.4"><path d="M84,228.9c6-3.46,11.44-9.23,15.54-15.9-.34-5.73-1.19-11.91-6.41-11.91l-15.5.11-3.17.34L73,232.05A20.37,20.37,0,0,0,84,228.9Z" style="fill:#fff"></path></g><path d="M90.62,203.15c1.45,4.62.54,11,0,13.95-3.67-5-7.11-10.12-8.19-12.1l5.12-2.49Z" style="fill:#ebebeb"></path><path d="M88.48,207.39l1.26-.3A40.43,40.43,0,0,1,91.28,212a48,48,0,0,1-.66,5.07c-.72-1-1.43-2-2.12-2.95A33.89,33.89,0,0,0,88.48,207.39Z" style="fill:#455a64"></path><path d="M88.5,207.66c0-.09,0-.18,0-.27l1.26-.3s0,.07.07.19a1.64,1.64,0,0,1-.71.38A1.73,1.73,0,0,1,88.5,207.66Z" style="opacity:0.2"></path><path d="M87.8,204.08l-1-.64-2.32,1.26a5.32,5.32,0,0,0,2.74,1.09Z" style="fill:#455a64"></path><path d="M89.33,203.83l.31-.68,1.17.74a2.13,2.13,0,0,1-.76,1.11Z" style="fill:#455a64"></path><path d="M87.8,204.08l-1-.64-2.32,1.26a5.32,5.32,0,0,0,2.74,1.09Z" style="opacity:0.2"></path><path d="M89.33,203.83l.31-.68,1.17.74a2.13,2.13,0,0,1-.76,1.11Z" style="opacity:0.2"></path><path d="M87.22,205.79a5.41,5.41,0,0,1,.58-1.71l1.53-.25a6.14,6.14,0,0,1,.72,1.17,5.62,5.62,0,0,1-.31,2.09,2.61,2.61,0,0,1-1.26.3A3.26,3.26,0,0,1,87.22,205.79Z" style="fill:#455a64"></path><path d="M88.34,203.54c-2.44,0-3.93,1.9-6.15,2.56l-4.54-4.9,1.76-2.62a4.49,4.49,0,0,1,1.34-1.3h0l0,.95a1.6,1.6,0,0,0,.8,1.36Z" style="fill:#e0e0e0"></path><path d="M88.34,203.54c1.35-.42,3.37,1.27,3.37,1.27-.71-3.91-2.84-5.46-3.37-5.46Z" style="fill:#e0e0e0"></path><path d="M74.48,201.54l-2.1.33a6.21,6.21,0,0,0-5.07,4.88,74.13,74.13,0,0,0-1.37,17.85l9.6-4.43C76.55,212.67,78.52,206.47,74.48,201.54Z" style="fill:#ebebeb"></path><path d="M75.44,223.51l0-.84a.58.58,0,0,1,.19-.39.59.59,0,0,0,.19-.43v-1.39a.67.67,0,0,0-.69-.67c-4.34.05-8.57,2.12-9.72,4.55a3.62,3.62,0,0,0,0,2.35c-.75,1-.39,1.49,0,2.2a13.67,13.67,0,0,0,1.25,1C69.51,225.39,75.44,223.51,75.44,223.51Z" style="fill:#e0e0e0"></path><path d="M71,222.54a14.77,14.77,0,0,0-5.5,4.15,4.67,4.67,0,0,1-.17-.79A9.67,9.67,0,0,1,71,222.54Z" style="opacity:0.2"></path><path d="M75.83,222a.54.54,0,0,1-.16.26.58.58,0,0,0-.19.39v.07a14.43,14.43,0,0,0-8,4.06C69.47,223.89,73.88,222.4,75.83,222Z" style="opacity:0.2"></path><path d="M84,228.9a40.72,40.72,0,0,0,9.88-8.26c-5.56,0-13.33.34-18.42,2.1l0,.77s-5.93,1.88-8.74,6.41C70.94,233,77.13,232.88,84,228.9Z" style="fill:#ffa8a7"></path><path d="M75.86,223.53l.1-.95-.48.16,0,.77a19.9,19.9,0,0,0-4,1.88,5.86,5.86,0,0,0-.91,1.77c1.16-1.64,2.43-2.3,4.91-2.94,2.25.35,6.17,2,10.16,3.67q.58-.37,1.14-.78C82,225.44,77.11,223.62,75.86,223.53Z" style="opacity:0.2"></path><path d="M83.55,197.46l-.07,0a4,4,0,0,1-2-2.62c-.13-.56-.24-1.12-.33-1.69s-.46,0-.46,0,0,1.25.06,2.73c0,.79,0,1.63.06,2.4a1.59,1.59,0,0,0,.8,1.36l6.77,3.95v-4.81A12.37,12.37,0,0,1,83.55,197.46Z" style="fill:#ffa8a7"></path><polygon points="81.9 196.6 81.9 196.59 81.91 196.6 81.9 196.6" style="fill:#ffa8a7"></polygon><path d="M82.58,197.36a4.67,4.67,0,0,1-.83-1.74,4,4,0,0,0,1.73,1.8l.07,0a12.37,12.37,0,0,0,4.79,1.27V200a11.87,11.87,0,0,1-2.84-.6A6.45,6.45,0,0,1,82.58,197.36Z" style="opacity:0.2"></path><path d="M96,182.06a32.33,32.33,0,0,1-.81,12.54,9.73,9.73,0,0,1-1,2.58,4.16,4.16,0,0,1-2,1.81,6.63,6.63,0,0,1-3.37,0,17.29,17.29,0,0,1-5.92-1.82,5.76,5.76,0,0,1-3-5.09,3.53,3.53,0,0,1-3.39.18,3.59,3.59,0,0,1-1.87-2.88,2.22,2.22,0,0,1,3.71-2.1,7.09,7.09,0,0,1,1.38,1.61,2.45,2.45,0,0,0,.69.74.84.84,0,0,0,1,0,1.25,1.25,0,0,0,.27-1L81.44,186a1.06,1.06,0,0,1,.58-1,2.53,2.53,0,0,0,1.18-1.35,5.3,5.3,0,0,0,.33-1.58.65.65,0,0,1,.89-.55A19.39,19.39,0,0,0,96,182.06Z" style="fill:#ffa8a7"></path><polygon points="90.19 188.43 92.56 192.4 89.74 192.93 90.19 188.43" style="fill:#f28f8f"></polygon><path d="M87,194.3l2.14,1a1.4,1.4,0,0,1-1.62.46A1.26,1.26,0,0,1,87,194.3Z" style="fill:#f28f8f"></path><path d="M87,194.3l2.14,1a1.4,1.4,0,0,1-1.62.46A1.26,1.26,0,0,1,87,194.3Z" style="opacity:0.30000000000000004"></path><path d="M88.29,195.87a1.23,1.23,0,0,1-.74-.07,1.15,1.15,0,0,1-.58-1.13,1.32,1.32,0,0,1,.85.3A1.35,1.35,0,0,1,88.29,195.87Z" style="fill:#f28f8f"></path><path d="M86.12,188.58a.81.81,0,1,0,.88-.72A.81.81,0,0,0,86.12,188.58Z" style="fill:#263238"></path><path d="M92.9,189a.81.81,0,1,0,.88-.72A.81.81,0,0,0,92.9,189Z" style="fill:#263238"></path><path d="M94,185.88l1.66,1.41a1.13,1.13,0,0,0-.22-1.29A1.36,1.36,0,0,0,94,185.88Z" style="fill:#263238"></path><path d="M87.13,185.09l-1.91,1a1.13,1.13,0,0,1,.47-1.22A1.38,1.38,0,0,1,87.13,185.09Z" style="fill:#263238"></path><g style="opacity:0.5"><polygon points="144.1 169.79 144.11 172.03 115.91 188.23 115.91 185.99 144.1 169.79" style="fill:#fff"></polygon><polygon points="149.38 180.5 149.39 182.74 115.95 201.97 115.95 199.73 149.38 180.5" style="fill:#fff"></polygon><polygon points="154.37 173.05 154.38 175.28 115.94 197.4 115.93 195.16 154.37 173.05" style="fill:#fff"></polygon><polygon points="162.27 154.73 162.28 156.96 115.9 183.66 115.89 181.43 162.27 154.73" style="fill:#fff"></polygon><polygon points="167.85 146.89 167.86 149.13 115.89 179.06 115.88 176.82 167.85 146.89" style="fill:#fff"></polygon><polygon points="142.64 152.87 142.66 157.35 115.87 172.82 115.86 168.33 142.64 152.87" style="fill:#fff"></polygon></g><polygon points="211.82 110.51 211.84 115.74 182.87 132.51 182.85 127.28 211.82 110.51" style="fill:#92E3A9"></polygon><polygon points="267.62 86.95 267.63 90.14 182.89 138.89 182.88 135.7 267.62 86.95" style="fill:#92E3A9"></polygon><g style="opacity:0.30000000000000004"><polygon points="211.82 110.51 211.84 115.74 182.87 132.51 182.85 127.28 211.82 110.51" style="fill:#fff"></polygon><polygon points="267.62 86.95 267.63 90.14 182.89 138.89 182.88 135.7 267.62 86.95" style="fill:#fff"></polygon><polygon points="261.4 109.48 261.41 112.68 182.94 158.06 182.93 154.87 261.4 109.48" style="fill:#fff"></polygon><polygon points="267.66 99.73 267.67 102.93 182.92 151.68 182.91 148.48 267.66 99.73" style="fill:#fff"></polygon><polygon points="248.41 104.38 248.42 107.57 182.9 145.28 182.9 142.09 248.41 104.38" style="fill:#fff"></polygon></g><g style="opacity:0.5"><polygon points="84.93 240.79 84.94 245.57 66.46 256.24 66.45 251.46 84.93 240.79" style="fill:#fff"></polygon><polygon points="103.33 237.83 103.34 240.08 66.47 261.36 66.47 259.11 103.33 237.83" style="fill:#fff"></polygon><polygon points="103.34 242.33 103.35 244.58 66.49 265.86 66.48 263.61 103.34 242.33" style="fill:#fff"></polygon><polygon points="92.66 259.28 92.67 264.06 66.53 279.16 66.51 274.37 92.66 259.28" style="fill:#fff"></polygon><polygon points="84.92 257.47 84.93 259.72 66.5 270.36 66.49 268.11 84.92 257.47" style="fill:#fff"></polygon><polygon points="76.57 308.19 76.58 310.44 66.63 316.18 66.62 313.94 76.57 308.19" style="fill:#fff"></polygon><polygon points="103.47 288.16 103.48 290.41 66.62 311.69 66.61 309.44 103.47 288.16" style="fill:#fff"></polygon><polygon points="103.46 283.66 103.47 285.91 66.61 307.19 66.6 304.94 103.46 283.66" style="fill:#fff"></polygon><polygon points="82.59 288.05 82.61 292.82 66.59 302.07 66.58 297.29 82.59 288.05" style="fill:#fff"></polygon><polygon points="96.86 273.52 96.87 275.77 66.57 293.27 66.56 291.02 96.86 273.52" style="fill:#fff"></polygon><polygon points="103.41 265.24 103.41 267.49 66.55 288.77 66.55 286.52 103.41 265.24" style="fill:#fff"></polygon><polygon points="103.39 260.75 103.4 263 66.54 284.28 66.53 282.03 103.39 260.75" style="fill:#fff"></polygon></g><polygon points="164.66 211.02 149.63 239.56 145.38 247.64 148.31 238.54 140.03 232.11 130.8 250.43 130.84 261.62 179.24 233.68 179.21 222.48 164.66 211.02" style="fill:#92E3A9"></polygon><path d="M148.78,226.15A9.1,9.1,0,0,0,152.9,219c0-2.62-1.86-3.67-4.14-2.36a9.1,9.1,0,0,0-4.12,7.13C144.65,226.4,146.51,227.46,148.78,226.15Z" style="fill:#92E3A9"></path><g style="opacity:0.30000000000000004"><polygon points="164.66 211.02 149.63 239.56 145.38 247.64 148.31 238.54 140.03 232.11 130.8 250.43 130.84 261.62 179.24 233.68 179.21 222.48 164.66 211.02" style="fill:#fff"></polygon><path d="M148.78,226.15A9.1,9.1,0,0,0,152.9,219c0-2.62-1.86-3.67-4.14-2.36a9.1,9.1,0,0,0-4.12,7.13C144.65,226.4,146.51,227.46,148.78,226.15Z" style="fill:#fff"></path></g><polygon points="250.32 162.5 235.3 191.03 231.05 199.11 233.98 190.01 225.69 183.58 216.47 201.9 216.5 213.1 264.91 185.15 264.87 173.96 250.32 162.5" style="fill:#92E3A9"></polygon><path d="M234.45,177.62a9.06,9.06,0,0,0,4.11-7.12c0-2.62-1.86-3.68-4.14-2.36a9,9,0,0,0-4.11,7.12C230.31,177.88,232.17,178.94,234.45,177.62Z" style="fill:#92E3A9"></path><g style="opacity:0.5"><polygon points="250.32 162.5 235.3 191.03 231.05 199.11 233.98 190.01 225.69 183.58 216.47 201.9 216.5 213.1 264.91 185.15 264.87 173.96 250.32 162.5" style="fill:#fff"></polygon><path d="M234.45,177.62a9.06,9.06,0,0,0,4.11-7.12c0-2.62-1.86-3.68-4.14-2.36a9,9,0,0,0-4.11,7.12C230.31,177.88,232.17,178.94,234.45,177.62Z" style="fill:#fff"></path></g><polygon points="261.4 109.48 261.41 112.68 182.94 158.06 182.93 154.87 261.4 109.48" style="fill:#92E3A9"></polygon><polygon points="267.66 99.73 267.67 102.93 182.92 151.68 182.91 148.48 267.66 99.73" style="fill:#92E3A9"></polygon><polygon points="248.41 104.38 248.42 107.57 182.9 145.28 182.9 142.09 248.41 104.38" style="fill:#92E3A9"></polygon></g><g id="freepik--Character--inject-24"><path d="M329.06,374h0l2.62,1.67.06,0h0a3,3,0,0,0,2.95-.31,9.23,9.23,0,0,0,4.18-7.24,2.93,2.93,0,0,0-1.18-2.65h0l0,0,0,0-.77-.49,25.09-10.19a1.85,1.85,0,0,0,.95,1.46l-2.26,19.73v2.68a9.33,9.33,0,0,0-3.46,6.73,2.87,2.87,0,0,0,1.31,2.72h0l2.63,1.67.05,0h0a3,3,0,0,0,2.95-.3,9.2,9.2,0,0,0,4.18-7.24,3,3,0,0,0-1.17-2.65h0l0,0,0,0-2.66-1.68h0a2.24,2.24,0,0,0-1.39-.31L365.87,357h0a6.15,6.15,0,0,0,1.83-.3h0l23.76,12.84-1.36.86,0,0,0,0h0a2.93,2.93,0,0,0-1.18,2.65,9.23,9.23,0,0,0,4.18,7.24,3,3,0,0,0,3,.31h0l.06,0,2.62-1.67h0a2.85,2.85,0,0,0,1.31-2.72,9.31,9.31,0,0,0-3.4-6.69v-4.14l-22.13-13.15,11.67-2.94a8.43,8.43,0,0,0-1.24,4.15,2.85,2.85,0,0,0,1.3,2.72h0l2.62,1.67.05,0h0a2.94,2.94,0,0,0,3-.31,9.22,9.22,0,0,0,4.18-7.23,3,3,0,0,0-1.18-2.65h0l0,0a.05.05,0,0,1,0,0L392.07,346h0a2.45,2.45,0,0,0-2-.19v-.67l-1.42-.48-19,1v-3.35a5.34,5.34,0,0,0,.59-.28,3.2,3.2,0,0,0,1.88-2.6V317.47H359.46v21.92a3.15,3.15,0,0,0,1.85,2.6,5.92,5.92,0,0,0,.62.3v2.81l-13.7-3-.65.27v2.52h0l-2.66,1.69,0,0,0,0h0a3,3,0,0,0-1.17,2.65,9.06,9.06,0,0,0,2.06,5.34l-13.23,6v3.13a4.65,4.65,0,0,0-.55.27,9.21,9.21,0,0,0-4.18,7.23A2.85,2.85,0,0,0,329.06,374ZM337,359.82l9.59-4.27h0l-13,5.77Zm17-10.78,1.94,1-1.34.6A10.46,10.46,0,0,0,353.91,349Zm8-.35-7.22,3.21h0Z" style="fill:#e0e0e0"></path><path d="M392.69,351.28l2.1-3.59L392.07,346h0a2.92,2.92,0,0,0-3,.26,9.18,9.18,0,0,0-4.17,7.23,2.85,2.85,0,0,0,1.3,2.72h0l2.68,1.7,2.21-3.79A9.91,9.91,0,0,0,392.69,351.28Z" style="fill:#37474f"></path><path d="M391.76,348c2.31-1.34,4.2-.27,4.21,2.39a9.22,9.22,0,0,1-4.18,7.23c-2.31,1.34-4.2.27-4.21-2.39A9.22,9.22,0,0,1,391.76,348Z" style="fill:#455a64"></path><path d="M346.92,350.26l-2.1-3.6,2.73-1.73h0a2.9,2.9,0,0,1,3,.25,9.25,9.25,0,0,1,4.18,7.23,2.89,2.89,0,0,1-1.31,2.73h0l-2.68,1.71-2.21-3.79A10.15,10.15,0,0,1,346.92,350.26Z" style="fill:#37474f"></path><path d="M347.85,346.92c-2.31-1.33-4.2-.27-4.2,2.39a9.22,9.22,0,0,0,4.17,7.24c2.32,1.33,4.2.26,4.21-2.4A9.21,9.21,0,0,0,347.85,346.92Z" style="fill:#455a64"></path><path d="M361.93,341.35h7.78v13.4h0a2,2,0,0,1-1.15,1.59,6.06,6.06,0,0,1-5.5,0,2,2,0,0,1-1.13-1.59h0Z" style="fill:#ebebeb"></path><polygon points="390.08 345.1 390.08 348.3 369.71 353.43 369.71 346.67 390.08 345.1" style="fill:#e0e0e0"></polygon><polygon points="390.08 345.1 388.66 344.62 369.71 345.62 369.71 346.67 390.08 345.1" style="fill:#f5f5f5"></polygon><path d="M392.13,374.06l-2.1-3.6,2.72-1.73h0a2.88,2.88,0,0,1,3,.25,9.18,9.18,0,0,1,4.18,7.23,2.85,2.85,0,0,1-1.31,2.72h0L396,380.66l-2.21-3.79A9.91,9.91,0,0,1,392.13,374.06Z" style="fill:#37474f"></path><path d="M393.06,370.72c-2.32-1.34-4.2-.27-4.21,2.39a9.23,9.23,0,0,0,4.18,7.24c2.31,1.33,4.2.26,4.2-2.4A9.2,9.2,0,0,0,393.06,370.72Z" style="fill:#455a64"></path><path d="M365,383.19l2.1-3.6-2.73-1.73h0a2.9,2.9,0,0,0-3,.25,9.2,9.2,0,0,0-4.18,7.23,2.87,2.87,0,0,0,1.31,2.72h0l2.68,1.71,2.21-3.79A9.94,9.94,0,0,0,365,383.19Z" style="fill:#37474f"></path><path d="M364.07,379.85c2.31-1.34,4.19-.27,4.2,2.39a9.2,9.2,0,0,1-4.18,7.24c-2.31,1.33-4.19.26-4.2-2.4A9.17,9.17,0,0,1,364.07,379.85Z" style="fill:#455a64"></path><path d="M335.58,369.08l2.1-3.6L335,363.75h0a2.88,2.88,0,0,0-3,.25,9.21,9.21,0,0,0-4.18,7.23,2.85,2.85,0,0,0,1.31,2.72h0l2.68,1.71,2.21-3.79A9.91,9.91,0,0,0,335.58,369.08Z" style="fill:#37474f"></path><path d="M334.65,365.74c2.32-1.34,4.2-.27,4.21,2.39a9.23,9.23,0,0,1-4.18,7.24c-2.31,1.33-4.2.26-4.2-2.4A9.18,9.18,0,0,1,334.65,365.74Z" style="fill:#455a64"></path><polygon points="394.98 366.27 394.98 371.45 367.7 356.71 367.7 349.57 394.98 366.27" style="fill:#e0e0e0"></polygon><polygon points="396.56 365.39 369.26 349.17 367.7 349.57 394.98 366.27 396.56 365.39" style="fill:#f5f5f5"></polygon><polygon points="396.56 370.56 394.98 371.45 394.98 366.27 396.56 365.39 396.56 370.56" style="fill:#f0f0f0"></polygon><polygon points="365.87 349.57 362.54 375.94 362.54 380.66 365.87 357 365.87 349.57" style="fill:#e0e0e0"></polygon><rect x="360.62" y="375.94" width="1.92" height="4.71" style="fill:#f0f0f0"></rect><polygon points="360.62 375.94 363.64 349.57 365.87 349.57 362.54 375.94 360.62 375.94" style="fill:#f5f5f5"></polygon><polygon points="333.57 361.32 333.57 366.27 361.94 354.75 361.94 348.69 333.57 361.32" style="fill:#e0e0e0"></polygon><polygon points="332.48 365.54 333.57 366.27 333.57 361.32 332.48 360.61 332.48 365.54" style="fill:#f0f0f0"></polygon><polygon points="336.95 359.82 333.57 361.32 332.48 360.61 361.94 347.34 361.94 348.69 336.95 359.82" style="fill:#f5f5f5"></polygon><polygon points="347.58 342.41 347.58 345.65 355.85 350.08 361.94 347.34 361.94 346.01 347.58 342.41" style="fill:#e0e0e0"></polygon><polygon points="347.58 342.41 348.23 342.14 361.94 345.1 361.94 346.01 347.58 342.41" style="fill:#f5f5f5"></polygon><path d="M359.46,317.47h12.72v21.92h0a3.2,3.2,0,0,1-1.88,2.6,9.89,9.89,0,0,1-9,0,3.15,3.15,0,0,1-1.85-2.6h0Z" style="fill:#e0e0e0"></path><path d="M309.36,282.23a8.36,8.36,0,0,0,2.75,2.6l51.83,27.53a12.14,12.14,0,0,0,11.17.11l36.31-18.39a18.39,18.39,0,0,0,9.44-11.6l17.53-64.73c.29.09.58.19.88.27a7.09,7.09,0,0,0,2.28.35h.11l-20.8,76.81a18.39,18.39,0,0,1-9.44,11.6l-36.31,18.39a12.14,12.14,0,0,1-11.17-.11l-51.83-27.53C306.94,294.57,306.45,286.65,309.36,282.23Z" style="fill:#92E3A9"></path><path d="M309.36,282.23a8.36,8.36,0,0,0,2.75,2.6l51.83,27.53a12.14,12.14,0,0,0,11.17.11l36.31-18.39a18.39,18.39,0,0,0,9.44-11.6l17.53-64.73c.29.09.58.19.88.27a7.09,7.09,0,0,0,2.28.35h.11l-20.8,76.81a18.39,18.39,0,0,1-9.44,11.6l-36.31,18.39a12.14,12.14,0,0,1-11.17-.11l-51.83-27.53C306.94,294.57,306.45,286.65,309.36,282.23Z" style="opacity:0.30000000000000004"></path><path d="M311.78,279.89l37.56-19.27,49.46,25.45c-1.61.39-3.25.71-4.87,1-4.25.85-8.59,1.79-12.28,4.07s-6.68,6.16-6.71,10.5l1.32,10.2h0l-1.15.59a12.14,12.14,0,0,1-11.17-.11l-51.83-27.53a8.36,8.36,0,0,1-2.75-2.6A7,7,0,0,1,311.78,279.89Z" style="fill:#92E3A9"></path><path d="M311.78,279.89l37.56-19.27,49.46,25.45c-1.61.39-3.25.71-4.87,1-4.25.85-8.59,1.79-12.28,4.07s-6.68,6.16-6.71,10.5l1.32,10.2h0l-1.15.59a12.14,12.14,0,0,1-11.17-.11l-51.83-27.53a8.36,8.36,0,0,1-2.75-2.6A7,7,0,0,1,311.78,279.89Z" style="opacity:0.2"></path><path d="M317.24,247.67s30.15,8.87,38.13,1c9.92-9.74,5.77-34.29,4.58-43.89s0-16.26,2.66-19.07,6.51-6.94,19-1.77c-12.63,6.5-14.26,37.4-10.27,49.81-9.9,10.19-9.22,26-9.41,33.31,0,0-25.76,6.29-39.21,13.68Z" style="fill:#92E3A9"></path><path d="M317.24,247.67s30.15,8.87,38.13,1c9.92-9.74,5.77-34.29,4.58-43.89s0-16.26,2.66-19.07,6.51-6.94,19-1.77c-12.63,6.5-14.26,37.4-10.27,49.81-9.9,10.19-9.22,26-9.41,33.31,0,0-25.76,6.29-39.21,13.68Z" style="fill:#fff;opacity:0.1"></path><path d="M322.71,280.78l-6.17-3.33c0-17-2.51-15.29-7.18-21.94s2.49-10.79,7.88-7.84S324.81,259.52,322.71,280.78Z" style="fill:#92E3A9"></path><path d="M322.71,280.78l-6.17-3.33c0-17-2.51-15.29-7.18-21.94s2.49-10.79,7.88-7.84S324.81,259.52,322.71,280.78Z" style="fill:#fff;opacity:0.2"></path><path d="M381.6,184s33.77,14.63,50.22,22.76l-1.2,6-53.87-24.45A14.36,14.36,0,0,1,381.6,184Z" style="fill:#92E3A9"></path><path d="M381.6,184s33.77,14.63,50.22,22.76l-1.2,6-53.87-24.45A14.36,14.36,0,0,1,381.6,184Z" style="fill:#fff;opacity:0.1"></path><path d="M371.33,233.79c-3.4-10.59-2.71-34.65,5.42-45.51l53.87,24.45-12.31,61.71L398.8,286.07l-36.88-19C362.11,259.77,361.43,244,371.33,233.79Z" style="fill:#92E3A9"></path><path d="M371.33,233.79c-3.4-10.59-2.71-34.65,5.42-45.51l53.87,24.45-12.31,61.71L398.8,286.07l-36.88-19C362.11,259.77,361.43,244,371.33,233.79Z" style="opacity:0.1"></path><path d="M404.67,246.16c-.91-.52-1.66-.1-1.66,1a3.63,3.63,0,0,0,1.65,2.85c.91.53,1.66.11,1.66-.94A3.66,3.66,0,0,0,404.67,246.16Z" style="fill:#92E3A9"></path><path d="M396.34,241.26c-.92-.52-1.66-.1-1.67,1a3.66,3.66,0,0,0,1.65,2.86c.92.52,1.66.1,1.66-.95A3.63,3.63,0,0,0,396.34,241.26Z" style="fill:#92E3A9"></path><path d="M388,236.37c-.91-.53-1.66-.11-1.66.94a3.66,3.66,0,0,0,1.65,2.86c.91.53,1.66.1,1.66-.95A3.63,3.63,0,0,0,388,236.37Z" style="fill:#92E3A9"></path><path d="M379.66,231.47c-.91-.53-1.65-.11-1.66.94a3.66,3.66,0,0,0,1.65,2.86c.92.53,1.66.1,1.66-1A3.59,3.59,0,0,0,379.66,231.47Z" style="fill:#92E3A9"></path><g style="opacity:0.2"><path d="M404.67,246.16c-.91-.52-1.66-.1-1.66,1a3.63,3.63,0,0,0,1.65,2.85c.91.53,1.66.11,1.66-.94A3.66,3.66,0,0,0,404.67,246.16Z" style="fill:#fff"></path><path d="M396.34,241.26c-.92-.52-1.66-.1-1.67,1a3.66,3.66,0,0,0,1.65,2.86c.92.52,1.66.1,1.66-.95A3.63,3.63,0,0,0,396.34,241.26Z" style="fill:#fff"></path><path d="M388,236.37c-.91-.53-1.66-.11-1.66.94a3.66,3.66,0,0,0,1.65,2.86c.91.53,1.66.1,1.66-.95A3.63,3.63,0,0,0,388,236.37Z" style="fill:#fff"></path><path d="M379.66,231.47c-.91-.53-1.65-.11-1.66.94a3.66,3.66,0,0,0,1.65,2.86c.92.53,1.66.1,1.66-1A3.59,3.59,0,0,0,379.66,231.47Z" style="fill:#fff"></path></g><path d="M381.65,291.18c3.69-2.28,8-3.22,12.28-4.07,1.62-.33,3.26-.65,4.87-1a30.2,30.2,0,0,0,7.53-2.75c6-3.29,9.95-9.44,11.87-16s2-13.46,1.56-20.26-1.25-13.58-1-20.38c.12-4,.72-8.19,3.39-11.11s7.22-3.94,11.26-3.39a22.44,22.44,0,0,1,3.91.91l1.79,2.1-.68,2.53-17.53,64.73a18.37,18.37,0,0,1-8.05,10.8c-.45.28-.91.55-1.39.8l-35.16,17.8-1.32-10.2C375,297.34,378,293.45,381.65,291.18Z" style="fill:#92E3A9"></path><path d="M381.65,291.18c3.69-2.28,8-3.22,12.28-4.07,1.62-.33,3.26-.65,4.87-1a30.2,30.2,0,0,0,7.53-2.75c6-3.29,9.95-9.44,11.87-16s2-13.46,1.56-20.26-1.25-13.58-1-20.38c.12-4,.72-8.19,3.39-11.11s7.22-3.94,11.26-3.39a22.44,22.44,0,0,1,3.91.91l1.79,2.1-.68,2.53-17.53,64.73a18.37,18.37,0,0,1-8.05,10.8c-.45.28-.91.55-1.39.8l-35.16,17.8-1.32-10.2C375,297.34,378,293.45,381.65,291.18Z" style="opacity:0.30000000000000004"></path><path d="M381.6,284.22c12.86-3.66,25.5-4.14,30.15-13.38s5-22,2.66-44.15a34,34,0,0,1,.21-8.58c1.37-8.3,6.36-11.84,12.1-11.93A22.4,22.4,0,0,1,442.1,212a7,7,0,0,1,1.91,2.51,3,3,0,0,1-.38,3,2.94,2.94,0,0,1-2,.89h-.11a7.09,7.09,0,0,1-2.28-.35c-.3-.08-.59-.18-.88-.27-1.58-.49-3.12-1.08-4.73-1.48a10.33,10.33,0,0,0-5.78,0,6.15,6.15,0,0,0-3.72,4.15c-5.42,17.71,1.45,36.74-4.65,51.37-5,13.3-22.23,18.82-34.39,22.77h0a7.46,7.46,0,0,0,3-2.21,5.12,5.12,0,0,0-.48-6.17A6.72,6.72,0,0,0,381.6,284.22Z" style="fill:#92E3A9"></path><path d="M381.6,284.22c12.86-3.66,25.5-4.14,30.15-13.38s5-22,2.66-44.15a34,34,0,0,1,.21-8.58c1.37-8.3,6.36-11.84,12.1-11.93A22.4,22.4,0,0,1,442.1,212a7,7,0,0,1,1.91,2.51,3,3,0,0,1-.38,3,2.94,2.94,0,0,1-2,.89h-.11a7.09,7.09,0,0,1-2.28-.35c-.3-.08-.59-.18-.88-.27-1.58-.49-3.12-1.08-4.73-1.48a10.33,10.33,0,0,0-5.78,0,6.15,6.15,0,0,0-3.72,4.15c-5.42,17.71,1.45,36.74-4.65,51.37-5,13.3-22.23,18.82-34.39,22.77h0a7.46,7.46,0,0,0,3-2.21,5.12,5.12,0,0,0-.48-6.17A6.72,6.72,0,0,0,381.6,284.22Z" style="fill:#fff;opacity:0.1"></path><path d="M372.68,293.32a19.16,19.16,0,0,1,3.29-5.76,9.89,9.89,0,0,1,5.63-3.34,6.72,6.72,0,0,1,6.08,2,5.12,5.12,0,0,1,.48,6.17,7.46,7.46,0,0,1-3,2.21,28.54,28.54,0,0,0-2.83,1.39,12,12,0,0,0-4.86,6.87,36.16,36.16,0,0,0-1.12,8.5l-.05.55-6-3.34A37,37,0,0,1,372.68,293.32Z" style="fill:#92E3A9"></path><path d="M372.68,293.32a19.16,19.16,0,0,1,3.29-5.76,9.89,9.89,0,0,1,5.63-3.34,6.72,6.72,0,0,1,6.08,2,5.12,5.12,0,0,1,.48,6.17,7.46,7.46,0,0,1-3,2.21,28.54,28.54,0,0,0-2.83,1.39,12,12,0,0,0-4.86,6.87,36.16,36.16,0,0,0-1.12,8.5l-.05.55-6-3.34A37,37,0,0,1,372.68,293.32Z" style="fill:#fff;opacity:0.2"></path><path d="M444,214.47A7,7,0,0,0,442.1,212a22.17,22.17,0,0,0-10.37-5.27C415.25,198.56,381.6,184,381.6,184a10.48,10.48,0,0,0-1.27.77,10.48,10.48,0,0,1,1.27-.77c-12.48-5.17-16.33-1-19,1.77s-3.84,9.46-2.66,19.07,5.34,34.15-4.58,43.89c-8,7.83-38.13-1-38.13-1h0c-5.39-2.95-12.56,1.19-7.88,7.84s7.18,5,7.18,21.94l-4.76,2.44a7,7,0,0,0-2.42,2.34c-2.91,4.42-2.42,12.34,2.75,15.29l51.83,27.53a12.14,12.14,0,0,0,11.17.11l36.31-18.39a18.39,18.39,0,0,0,9.44-11.6l20.8-76.81a2.94,2.94,0,0,0,2-.89A3,3,0,0,0,444,214.47Zm-24.45,71.42c-.13.26-.28.51-.42.76C419.28,286.4,419.43,286.15,419.56,285.89Zm-.88,1.55c-.18.28-.37.55-.56.82C418.31,288,418.5,287.72,418.68,287.44ZM378.87,185.93c-.33.3-.65.62-1,.95C378.22,186.55,378.54,186.23,378.87,185.93Zm1.17-1c-.32.24-.63.48-.94.75C379.41,185.44,379.72,185.2,380,185Zm-3.29,3.32c-.24.32-.48.67-.71,1a17.64,17.64,0,0,1,1.74-2.27C377.43,187.42,377.08,187.84,376.75,188.28ZM372,198.49a62.59,62.59,0,0,0-1.9,9.27A62.59,62.59,0,0,1,372,198.49Zm4-9.13c-.23.36-.45.72-.67,1.1C375.54,190.08,375.76,189.72,376,189.36Zm-.68,1.11a36.11,36.11,0,0,0-3.31,8A35.91,35.91,0,0,1,375.31,190.47Zm-5.25,17.47c-.06.48-.11.95-.17,1.42C370,208.89,370,208.42,370.06,207.94Zm-.2,1.73c-.05.45-.09.91-.13,1.37C369.77,210.58,369.81,210.12,369.86,209.67Zm-.16,1.68c0,.47-.08.94-.11,1.4C369.62,212.29,369.66,211.82,369.7,211.35Zm-.11,1.48c-.1,1.46-.16,2.91-.17,4.34C369.43,215.74,369.49,214.29,369.59,212.83Zm-.18,4.88v0ZM371,232.66c0-.13-.07-.27-.1-.4C370.93,232.39,371,232.53,371,232.66Zm-.3-1.23c0-.16-.08-.33-.11-.5C370.62,231.1,370.66,231.27,370.7,231.43Zm-.28-1.31c0-.18-.07-.36-.1-.55C370.35,229.76,370.38,229.94,370.42,230.12Zm-.25-1.4-.09-.57Zm-.21-1.5c0-.18,0-.36-.08-.55C369.91,226.86,369.93,227,370,227.22Zm-.23-1.91c0-.22,0-.44-.05-.66C369.7,224.87,369.71,225.09,369.73,225.31Zm-.14-1.69c0-.25,0-.52,0-.78C369.56,223.1,369.57,223.37,369.59,223.62Zm-.09-1.6c0-.29,0-.58,0-.88C369.47,221.44,369.48,221.73,369.5,222Zm-.06-1.64c0-.31,0-.62,0-.94C369.42,219.76,369.43,220.07,369.44,220.38ZM390.79,282h0L361.92,267.1h0ZM414,292.44c-.39.29-.8.58-1.22.84C413.23,293,413.64,292.73,414,292.44Zm.28-.2c.35-.27.68-.55,1-.84C415,291.69,414.66,292,414.31,292.24Zm1.39-1.18c.29-.28.57-.56.84-.85C416.27,290.5,416,290.78,415.7,291.06Zm2-2.18c-.23.29-.46.57-.7.85C417.21,289.45,417.44,289.17,417.67,288.88Zm2.35-4c.09-.21.19-.42.27-.63C420.21,284.44,420.11,284.65,420,284.86Z" style="opacity:0.1"></path><path d="M353.57,313.89a29.15,29.15,0,0,0,14-12.9c3.05-5.7,4.57-10.72,3.41-17.09l-46.56-18.32c-1.45,13.86-14.18,22.93-14.18,22.93Z" style="fill:#37474f"></path><path d="M302.77,368.54c0,3.75.13,9.24.13,9.24l2.5.14a6.06,6.06,0,0,1,5.38,4l.06.16a2.38,2.38,0,0,0,2.93,1.46h0a2.38,2.38,0,0,0,1.43-1.24L316.4,370Z" style="fill:#ffa8a7"></path><path d="M299.22,406c-6.58,2.81-16.64,3.36-20.82-3.35v1.81c4.18,6.71,14.24,6.16,20.82,3.36s5.13-7.4,11-9.86a16,16,0,0,0,5.75-3.63c0-.53.11-1.21.2-2a19.82,19.82,0,0,1-5.95,3.79C304.35,398.59,305.79,403.17,299.22,406Z" style="fill:#fafafa"></path><path d="M316.19,386.37a9.46,9.46,0,0,1,0-3.88,2.1,2.1,0,0,0-.3-1.72l-.53-.52-.2,2a2.36,2.36,0,0,1-4.36-.22l-.06-.16a6.06,6.06,0,0,0-5.38-4l-2.55-.14a1.81,1.81,0,0,0-1.79,1.12c-2.63,6.33-9.22,13.36-14.3,16.57-3.74-.08-8.36,3-8.36,6.78v.38c4.18,6.71,14.24,6.16,20.82,3.35s5.13-7.39,11-9.86a19.82,19.82,0,0,0,5.95-3.79A21,21,0,0,0,316.19,386.37Z" style="fill:#92E3A9"></path><path d="M316.19,386.37a9.46,9.46,0,0,1,0-3.88,2.1,2.1,0,0,0-.3-1.72l-.53-.52-.2,2a2.36,2.36,0,0,1-4.36-.22l-.06-.16a6.06,6.06,0,0,0-5.38-4l-2.55-.14a1.81,1.81,0,0,0-1.79,1.12c-2.63,6.33-9.22,13.36-14.3,16.57-3.74-.08-8.36,3-8.36,6.78v.38c4.18,6.71,14.24,6.16,20.82,3.35s5.13-7.39,11-9.86a19.82,19.82,0,0,0,5.95-3.79A21,21,0,0,0,316.19,386.37Z" style="opacity:0.2"></path><path d="M316.19,386.37a9.46,9.46,0,0,1,0-3.88,2.1,2.1,0,0,0-.3-1.72l-.53-.52-.2,2a2.36,2.36,0,0,1-4.36-.22l-.06-.16a6.06,6.06,0,0,0-5.38-4l-2.55-.14a1.81,1.81,0,0,0-1.79,1.12c-2.63,6.33-9.22,13.36-14.3,16.57-3.74-.08-8.36,3-8.36,6.78v.38c4.18,6.71,14.24,6.16,20.82,3.35s5.13-7.39,11-9.86a19.82,19.82,0,0,0,5.95-3.79A21,21,0,0,0,316.19,386.37Z" style="fill:#fff;opacity:0.25"></path><path d="M303.47,391.56a.84.84,0,0,0,1.3-1.05,9.52,9.52,0,0,0-8.58-3.77c-.36.44-.71.87-1.08,1.29A9.17,9.17,0,0,1,303.47,391.56Z" style="fill:#fff"></path><path d="M306.06,388.66a.84.84,0,0,0,1.3-1.05,10,10,0,0,0-8.95-3.86c-.32.47-.65.93-1,1.4C300.63,384.92,303.5,385.53,306.06,388.66Z" style="fill:#fff"></path><path d="M300.78,394.39a.81.81,0,0,0,1.16.11.82.82,0,0,0,.14-1.15,9.53,9.53,0,0,0-8.36-3.79c-.43.45-.86.88-1.29,1.3A9.23,9.23,0,0,1,300.78,394.39Z" style="fill:#fff"></path><path d="M286.76,395.47c-3.74-.08-8.36,3-8.36,6.78v.38c4.12,6.61,13.94,6.17,20.51,3.47C298.41,397.07,289.74,395.44,286.76,395.47Z" style="fill:#fff"></path><path d="M298,397.1a.83.83,0,0,0,1.3-1,9.49,9.49,0,0,0-8.37-3.79c-.53.47-1.05.91-1.57,1.32C292.57,393.37,295.44,394,298,397.1Z" style="fill:#fff"></path><path d="M322.32,345.65c-.52,8.31-2.64,14.33-4.27,25.65,0,0-9.94,3-16.14-1.36l-.25-17.44Z" style="fill:#37474f"></path><path d="M267.52,355.85c-.83,3.63-2.49,8.47-2.49,8.47l2.51.14a6.08,6.08,0,0,1,5.38,4l.05.16a2.36,2.36,0,0,0,2.93,1.45h0a2.32,2.32,0,0,0,1.43-1.24l3.78-9.91Z" style="fill:#ffa8a7"></path><path d="M261.35,392.53c-6.58,2.8-16.64,3.35-20.82-3.36V391c4.18,6.71,14.24,6.16,20.82,3.35s5.13-7.39,11-9.86a15.88,15.88,0,0,0,5.75-3.63c0-.53.11-1.2.2-2a20,20,0,0,1-5.95,3.8C266.48,385.13,267.92,389.72,261.35,392.53Z" style="fill:#fafafa"></path><path d="M278.33,372.91a9.3,9.3,0,0,1,0-3.87,2.1,2.1,0,0,0-.3-1.72l-.1-.14-.63,1.65a2.32,2.32,0,0,1-1.43,1.24,2.36,2.36,0,0,1-2.93-1.45l-.05-.16a6.08,6.08,0,0,0-5.38-4l-2.55-.14a1.84,1.84,0,0,0-1.8,1.13c-2.62,6.32-9.22,13.35-14.3,16.57-3.73-.09-8.36,3-8.36,6.78v.37c4.18,6.71,14.24,6.16,20.82,3.36s5.13-7.4,11-9.86a20,20,0,0,0,5.95-3.8A21.33,21.33,0,0,0,278.33,372.91Z" style="fill:#92E3A9"></path><path d="M278.33,372.91a9.3,9.3,0,0,1,0-3.87,2.1,2.1,0,0,0-.3-1.72l-.1-.14-.63,1.65a2.32,2.32,0,0,1-1.43,1.24,2.36,2.36,0,0,1-2.93-1.45l-.05-.16a6.08,6.08,0,0,0-5.38-4l-2.55-.14a1.84,1.84,0,0,0-1.8,1.13c-2.62,6.32-9.22,13.35-14.3,16.57-3.73-.09-8.36,3-8.36,6.78v.37c4.18,6.71,14.24,6.16,20.82,3.36s5.13-7.4,11-9.86a20,20,0,0,0,5.95-3.8A21.33,21.33,0,0,0,278.33,372.91Z" style="opacity:0.2"></path><path d="M278.33,372.91a9.3,9.3,0,0,1,0-3.87,2.1,2.1,0,0,0-.3-1.72l-.1-.14-.63,1.65a2.32,2.32,0,0,1-1.43,1.24,2.36,2.36,0,0,1-2.93-1.45l-.05-.16a6.08,6.08,0,0,0-5.38-4l-2.55-.14a1.84,1.84,0,0,0-1.8,1.13c-2.62,6.32-9.22,13.35-14.3,16.57-3.73-.09-8.36,3-8.36,6.78v.37c4.18,6.71,14.24,6.16,20.82,3.36s5.13-7.4,11-9.86a20,20,0,0,0,5.95-3.8A21.33,21.33,0,0,0,278.33,372.91Z" style="fill:#fff;opacity:0.25"></path><path d="M265.6,378.1a.83.83,0,0,0,1.3-1,9.52,9.52,0,0,0-8.58-3.77c-.35.43-.71.86-1.08,1.28A9.19,9.19,0,0,1,265.6,378.1Z" style="fill:#fff"></path><path d="M268.19,375.2a.85.85,0,0,0,1.17.11.82.82,0,0,0,.13-1.15,10,10,0,0,0-8.95-3.87c-.32.47-.65.94-1,1.4C262.76,371.47,265.63,372.07,268.19,375.2Z" style="fill:#fff"></path><path d="M262.91,380.94a.84.84,0,0,0,1.3-1.05,9.49,9.49,0,0,0-8.36-3.78c-.42.44-.85.88-1.28,1.3A9.17,9.17,0,0,1,262.91,380.94Z" style="fill:#fff"></path><path d="M248.89,382c-3.73-.09-8.36,3-8.36,6.78v.37c4.12,6.61,13.94,6.17,20.52,3.47C260.54,383.61,251.87,382,248.89,382Z" style="fill:#fff"></path><path d="M260.14,383.65a.82.82,0,0,0,1.16.1.81.81,0,0,0,.13-1.15,9.48,9.48,0,0,0-8.37-3.78c-.53.46-1.05.9-1.57,1.32C254.7,379.91,257.57,380.52,260.14,383.65Z" style="fill:#fff"></path><path d="M290.51,336.33c-1.92,8.1-5,13.67-8.54,24.55,0,0-10.31,1.24-15.68-4.07l4.63-28.44Z" style="fill:#37474f"></path><polygon points="165.54 277.85 165.54 363.63 168.57 361.87 168.57 276.09 165.54 277.85" style="fill:#455a64"></polygon><polygon points="165.54 277.85 165.54 363.63 162.51 361.87 162.51 276.09 165.54 277.85" style="fill:#37474f"></polygon><polygon points="168.57 300.72 239.57 259.73 239.57 256.47 168.57 297.46 168.57 300.72" style="fill:#455a64"></polygon><polygon points="168.57 294.02 236.53 254.72 239.57 256.47 168.57 297.46 168.57 294.02" style="fill:#37474f"></polygon><polygon points="379.81 316.16 379.81 401.94 382.85 400.19 382.85 314.41 379.81 316.16" style="fill:#455a64"></polygon><polygon points="379.81 316.16 379.81 401.94 376.78 400.19 376.78 314.41 379.81 316.16" style="fill:#37474f"></polygon><polygon points="305.79 358.92 305.79 444.7 308.82 442.94 308.82 357.16 305.79 358.92" style="fill:#455a64"></polygon><polygon points="305.79 358.92 305.79 444.7 302.75 442.94 302.75 357.16 305.79 358.92" style="fill:#37474f"></polygon><polygon points="308.82 381.79 379.81 340.8 379.81 337.55 308.82 378.53 308.82 381.79" style="fill:#455a64"></polygon><polygon points="308.82 375.09 376.78 335.79 379.81 337.55 308.82 378.53 308.82 375.09" style="fill:#37474f"></polygon><g style="opacity:0.2"><polygon points="379.81 316.16 379.81 401.94 382.85 400.19 382.85 314.41 379.81 316.16" style="fill:#fff"></polygon><polygon points="379.81 316.16 379.81 401.94 376.78 400.19 376.78 314.41 379.81 316.16" style="fill:#fff"></polygon><polygon points="305.79 358.92 305.79 444.7 308.82 442.94 308.82 357.16 305.79 358.92" style="fill:#fff"></polygon><polygon points="305.79 358.92 305.79 444.7 302.75 442.94 302.75 357.16 305.79 358.92" style="fill:#fff"></polygon><polygon points="308.82 381.79 379.81 340.8 379.81 337.55 308.82 378.53 308.82 381.79" style="fill:#fff"></polygon><polygon points="308.82 375.09 376.78 335.79 379.81 337.55 308.82 378.53 308.82 375.09" style="fill:#fff"></polygon></g><g style="opacity:0.2"><polygon points="165.54 277.85 165.54 363.63 168.57 361.87 168.57 276.09 165.54 277.85" style="fill:#fff"></polygon><polygon points="165.54 277.85 165.54 363.63 162.51 361.87 162.51 276.09 165.54 277.85" style="fill:#fff"></polygon><polygon points="168.57 300.72 239.57 259.73 239.57 256.47 168.57 297.46 168.57 300.72" style="fill:#fff"></polygon><polygon points="168.57 294.02 236.53 254.72 239.57 256.47 168.57 297.46 168.57 294.02" style="fill:#fff"></polygon></g><polygon points="305.79 350.63 162.5 268.05 239.56 223.54 382.85 306.13 305.79 350.63" style="fill:#455a64"></polygon><polygon points="305.79 358.92 162.5 276.09 162.5 268.05 305.79 350.63 305.79 358.92" style="fill:#455a64"></polygon><polygon points="305.79 350.63 382.85 306.12 382.85 314.41 305.79 358.92 305.79 350.63" style="fill:#455a64"></polygon><polygon points="305.79 350.63 162.5 268.05 239.56 223.54 382.85 306.13 305.79 350.63" style="fill:#fff;opacity:0.30000000000000004"></polygon><polygon points="305.79 350.63 382.85 306.12 382.85 314.41 305.79 358.92 305.79 350.63" style="fill:#fff;opacity:0.1"></polygon><polygon points="305.79 358.92 162.5 276.09 162.5 268.05 305.79 350.63 305.79 358.92" style="fill:#fff;opacity:0.2"></polygon><polygon points="246.75 243.2 235.26 268.32 205.27 263.67 216.75 238.55 246.75 243.2" style="fill:#e6e6e6"></polygon><polygon points="258.01 248.06 232.04 269.24 206.73 258.81 232.69 237.63 258.01 248.06" style="fill:#f0f0f0"></polygon><polygon points="263.33 240.99 278.88 256.56 240.04 269.54 224.47 253.96 263.33 240.99" style="fill:#fff"></polygon><path d="M240.19,283.42l31.44-18.28a7.14,7.14,0,0,1,6.46,0L330,295.09a2.32,2.32,0,0,1,1.33,1.78h0v2h0a2,2,0,0,1,0,.42s0,0,0,0a2.26,2.26,0,0,1-.22.44l0,0a2.24,2.24,0,0,1-.39.44l0,0a3.76,3.76,0,0,1-.58.42L298.55,319a5.2,5.2,0,0,1-.9.39l-.35.11-.46.11-.56.1-.13,0c-.25,0-.51,0-.77,0h-.12c-.26,0-.51,0-.76,0l-.11,0c-.25,0-.5-.07-.74-.12l-.13,0a5.8,5.8,0,0,1-.63-.2l-.12,0a6.3,6.3,0,0,1-.69-.33L240.21,289a3.43,3.43,0,0,1-.59-.42c-.06-.05-.1-.11-.15-.16a2.44,2.44,0,0,1-.27-.3.87.87,0,0,1-.1-.19,2.19,2.19,0,0,1-.16-.3,1.52,1.52,0,0,1,0-.21,1.57,1.57,0,0,1,0-.3v-1.84A2.26,2.26,0,0,1,240.19,283.42Z" style="fill:#e0e0e0"></path><path d="M331.29,296.87a1.58,1.58,0,0,1-.05.57s0,0,0,0a2.26,2.26,0,0,1-.22.44l0,.05a2.53,2.53,0,0,1-.39.43l0,0a3.76,3.76,0,0,1-.58.42l-31.44,18.27a5.2,5.2,0,0,1-.9.39l-.35.11-.46.11a5,5,0,0,1-.56.1l-.13,0c-.25,0-.51,0-.77,0h-.12c-.26,0-.51,0-.76,0h-.11c-.25,0-.5-.08-.74-.13l-.13,0a5.8,5.8,0,0,1-.63-.2l-.12,0a6.3,6.3,0,0,1-.69-.33l-51.87-29.95a3.43,3.43,0,0,1-.59-.42,1.14,1.14,0,0,1-.15-.16,1.88,1.88,0,0,1-.27-.3.87.87,0,0,1-.1-.19,2.19,2.19,0,0,1-.16-.3,1.52,1.52,0,0,1,0-.21,1.57,1.57,0,0,1,0-.3v1.84a1.57,1.57,0,0,0,0,.3,1.52,1.52,0,0,0,0,.21,2.19,2.19,0,0,0,.16.3.87.87,0,0,0,.1.19,2.44,2.44,0,0,0,.27.3c.05.05.09.11.15.16a3.43,3.43,0,0,0,.59.42L292.08,319a6.3,6.3,0,0,0,.69.33l.12,0a5.8,5.8,0,0,0,.63.2l.13,0c.24,0,.49.09.74.12l.11,0c.25,0,.5,0,.76,0h.12c.26,0,.52,0,.77,0l.13,0,.56-.1.46-.11.35-.11a5.2,5.2,0,0,0,.9-.39L330,300.68a3.76,3.76,0,0,0,.58-.42l0,0a2.24,2.24,0,0,0,.39-.44l0,0a2.26,2.26,0,0,0,.22-.44s0,0,0,0a2,2,0,0,0,0-.42h0v-2Z" style="opacity:0.30000000000000004"></path><path d="M243.26,285.28l50.4,29.1a1,1,0,0,0,.2.09l.11,0a2.34,2.34,0,0,0,.39.12l.28.05.19,0c.13,0,.28,0,.49,0h0a3.46,3.46,0,0,0,.52,0l.33-.05.41-.11a2.17,2.17,0,0,0,.35-.15L313.18,305,261.12,274.9Z" style="fill:#e0e0e0"></path><path d="M295.38,314.73h0Z" style="fill:#263238"></path><path d="M291.21,277.28l-9.49,5.58a1,1,0,0,0,0,1.65l14.18,8.19a1.57,1.57,0,0,0,1.58,0l9.48-5.57a1,1,0,0,0,0-1.66l-14.18-8.19A1.57,1.57,0,0,0,291.21,277.28Z" style="fill:#e0e0e0"></path><path d="M243.26,285.28l50.4,29.1a1,1,0,0,0,.2.09l.11,0a2.34,2.34,0,0,0,.39.12l.28.05.19,0c.13,0,.28,0,.49,0h0a3.46,3.46,0,0,0,.52,0l.33-.05.41-.11a2.17,2.17,0,0,0,.35-.15L313.18,305,261.12,274.9Z" style="opacity:0.2"></path><path d="M291.21,277.28l-9.49,5.58a1,1,0,0,0,0,1.65l14.18,8.19a1.57,1.57,0,0,0,1.58,0l9.48-5.57a1,1,0,0,0,0-1.66l-14.18-8.19A1.57,1.57,0,0,0,291.21,277.28Z" style="opacity:0.2"></path><path d="M316.2,233.37l-6.34,16-25,10.31a10.34,10.34,0,0,1-4.79.74l-9.63-.79a5.46,5.46,0,0,0-3.23.76l-5.51,3.34a5.92,5.92,0,0,0-1.47,1.26l-2.7,3.2a2,2,0,0,0,.37,2.95l1.7,1.22a6,6,0,0,0,6.23.48l4.26-2.15,8.81,1V274L276.5,276a2.53,2.53,0,0,0,.06,3.9h0s5.89-1.74,11.22-10.29L319.09,263a10.49,10.49,0,0,0,7.72-6.77l6-17Z" style="fill:#ffa8a7"></path><path d="M333.44,206.24c-4.26-.48-6.84-.3-10.88,6.49-4.9,8.23-9.59,24-9.59,24,9.41,4.6,20.47,5.35,20.47,5.35C335.83,236.06,333.44,206.24,333.44,206.24Z" style="fill:#92E3A9"></path><g style="opacity:0.30000000000000004"><path d="M333.44,206.24c-4.26-.48-6.84-.3-10.88,6.49-4.9,8.23-9.59,24-9.59,24,9.41,4.6,20.47,5.35,20.47,5.35C335.83,236.06,333.44,206.24,333.44,206.24Z" style="fill:#fff"></path></g><path d="M367.8,213.72c-13.39-6.28-23.42-7-34.36-7.48-16.38,10.54-10.25,19.32-10,33.4.24,11.86,2.45,19.77-2.69,30.71l31.74,18.3c9.21-.11,16.6-2.28,19.6-4.19C376.3,245.5,375.07,216.72,367.8,213.72Z" style="fill:#92E3A9"></path><path d="M367.8,213.72c-13.39-6.28-23.42-7-34.36-7.48-16.38,10.54-10.25,19.32-10,33.4.24,11.86,2.45,19.77-2.69,30.71l31.74,18.3c9.21-.11,16.6-2.28,19.6-4.19C376.3,245.5,375.07,216.72,367.8,213.72Z" style="fill:#fff;opacity:0.5"></path><path d="M354.55,250.38l-4,17.7L323,279.44a11.44,11.44,0,0,1-5.27.82l-10.61-.87a5.92,5.92,0,0,0-3.56.83l-6.08,3.68a6.53,6.53,0,0,0-1.62,1.39l-3,3.52a2.23,2.23,0,0,0,.41,3.25l1.87,1.34a6.63,6.63,0,0,0,6.86.53l4.7-2.37,7.71,1.4a15.43,15.43,0,0,0,10.19-1.68l1.62-.9,33.62-7.1a11.53,11.53,0,0,0,8.86-8.72L373.23,255Z" style="fill:#ffa8a7"></path><path d="M367.8,213.72c16,6,12.38,20.24,6.46,42.8-9.53,2.64-20.82-5.66-20.82-5.66C356.57,233,357.76,213.44,367.8,213.72Z" style="fill:#92E3A9"></path><path d="M367.8,213.72c16,6,12.38,20.24,6.46,42.8-9.53,2.64-20.82-5.66-20.82-5.66C356.57,233,357.76,213.44,367.8,213.72Z" style="fill:#fff;opacity:0.30000000000000004"></path><path d="M231.72,246.79h0l1.24-.62h0a1.56,1.56,0,0,1,1.39.09l52.23,30.37a6.29,6.29,0,0,1,3.06,4.47L295,315.25a1.55,1.55,0,0,1-.88,1.65h0l-1.21.59h0a1.55,1.55,0,0,1-1.35-.11L239.37,287a6.3,6.3,0,0,1-3.06-4.47l-5.37-34.15A1.55,1.55,0,0,1,231.72,246.79Z" style="fill:#e0e0e0"></path><path d="M260.21,278a11.53,11.53,0,0,1,5.18,7.46c.34,2.67-1.42,3.66-3.95,2.2a11.59,11.59,0,0,1-5.18-7.47C255.92,277.57,257.69,276.58,260.21,278Z" style="fill:#fff"></path><path d="M294,315.77l-5.37-34.14a6.31,6.31,0,0,0-3.06-4.48l-52.23-30.36a1.55,1.55,0,0,0-1.57,0h0l1.24-.62h0a1.56,1.56,0,0,1,1.39.09l52.23,30.37a6.29,6.29,0,0,1,3.06,4.47L295,315.25a1.55,1.55,0,0,1-.88,1.65h0l-1.21.59h0A1.57,1.57,0,0,0,294,315.77Z" style="opacity:0.30000000000000004"></path><path d="M324,189.41a11.72,11.72,0,0,1-3.26-15.47,6.38,6.38,0,0,1-3.09-2.91,3.41,3.41,0,0,1,4.43-4.54A4.8,4.8,0,0,1,324,160.9a4.5,4.5,0,0,1,5.61,1,3.09,3.09,0,0,1,2.09-3,6.23,6.23,0,0,1,3.9.25c1.25.43,2.43,1,3.69,1.45a28.9,28.9,0,0,0,6.64.85,13.36,13.36,0,0,1,6.41,1.7c1.87,1.22,3.53,4.06,2.52,6.5a3.7,3.7,0,0,1,2.66-1.41,3.57,3.57,0,0,1,2.73,1.16c-1.4.87-2.75,1.8-4.14,2.66,1.4-.63,3.5.36,4.26,1.7a8.59,8.59,0,0,1,.75,4.5A60,60,0,0,1,358,195.5c-.95,2.87-2.33,5.91-5,7.24Z" style="fill:#37474f"></path><path d="M338.8,203.23l.62,6.86a2.61,2.61,0,0,1-.39,1.51,3.91,3.91,0,0,0,.6,4.49,5.11,5.11,0,0,0,3.07,1A14.81,14.81,0,0,0,354,212.75a3.24,3.24,0,0,0,.9-2.35l-.45-17.4Z" style="fill:#ffa8a7"></path><path d="M353.11,193.9l-14.31,9.33.55,6.08c3.32-.78,6.67-1.74,9.3-3.88A12.74,12.74,0,0,0,353.11,193.9Z" style="opacity:0.30000000000000004"></path><path d="M323.21,175.27a61.42,61.42,0,0,0,1.54,23.8,18.51,18.51,0,0,0,1.89,4.89,7.84,7.84,0,0,0,3.86,3.42c2,.76,4.26.39,6.38,0,3.89-.68,7.87-1.4,11.24-3.45s6.05-5.73,5.72-9.66a6.74,6.74,0,0,0,6.45.36,6.87,6.87,0,0,0,3.54-5.47c.15-2.2-1.12-4.65-3.28-5.08a4.73,4.73,0,0,0-3.76,1.09,14,14,0,0,0-2.62,3.06,4.62,4.62,0,0,1-1.31,1.4,1.58,1.58,0,0,1-1.8,0,2.35,2.35,0,0,1-.51-2l.22-5a2,2,0,0,0-1.1-1.85,4.87,4.87,0,0,1-2.23-2.57,9.85,9.85,0,0,1-.63-3,1.23,1.23,0,0,0-1.68-1.05C338.44,176.92,330.11,177,323.21,175.27Z" style="fill:#ffa8a7"></path><polygon points="334.17 187.35 329.69 194.89 335.03 195.89 334.17 187.35" style="fill:#f28f8f"></polygon><path d="M340.18,198.49l-4.06,2a2.66,2.66,0,0,0,3.08.88A2.42,2.42,0,0,0,340.18,198.49Z" style="fill:#f28f8f"></path><path d="M340.18,198.49l-4.06,2a2.66,2.66,0,0,0,3.08.88A2.42,2.42,0,0,0,340.18,198.49Z" style="opacity:0.30000000000000004"></path><path d="M337.79,201.47a2.4,2.4,0,0,0,1.41-.13,2.17,2.17,0,0,0,1.08-2.14,2.44,2.44,0,0,0-2.49,2.27Z" style="fill:#f28f8f"></path><path d="M341.9,187.65a1.53,1.53,0,1,1-1.68-1.38A1.54,1.54,0,0,1,341.9,187.65Z" style="fill:#263238"></path><path d="M329,188.44a1.53,1.53,0,1,1-1.68-1.37A1.53,1.53,0,0,1,329,188.44Z" style="fill:#263238"></path><path d="M326.94,182.52l-3.15,2.68a2.19,2.19,0,0,1,.42-2.46A2.6,2.6,0,0,1,326.94,182.52Z" style="fill:#263238"></path><path d="M340,181l3.62,2a2.19,2.19,0,0,0-.9-2.33A2.6,2.6,0,0,0,340,181Z" style="fill:#263238"></path></g></svg>
